ffmpeg version N-94566-gddd92ba2c6 Copyright (c) 2000-2019 the FFmpeg developers
  built with gcc 9.1.1 (GCC) 20190807
  configuration: --enable-gpl --enable-version3 --enable-sdl2 --enable-fontconfig --enable-gnutls --enable-iconv --enable-libass --enable-libdav1d --enable-libbluray --enable-libfreetype --enable-libmp3lame --enable-libopencore-amrnb --enable-libopencore-amrwb --enable-libopenjpeg --enable-libopus --enable-libshine --enable-libsnappy --enable-libsoxr --enable-libtheora --enable-libtwolame --enable-libvpx --enable-libwavpack --enable-libwebp --enable-libx264 --enable-libx265 --enable-libxml2 --enable-libzimg --enable-lzma --enable-zlib --enable-gmp --enable-libvidstab --enable-libvorbis --enable-libvo-amrwbenc --enable-libmysofa --enable-libspeex --enable-libxvid --enable-libaom --enable-libmfx --enable-amf --enable-ffnvcodec --enable-cuvid --enable-d3d11va --enable-nvenc --enable-nvdec --enable-dxva2 --enable-avisynth --enable-libopenmpt
  libavutil      56. 33.100 / 56. 33.100
  libavcodec     58. 55.100 / 58. 55.100
  libavformat    58. 30.100 / 58. 30.100
  libavdevice    58.  9.100 / 58.  9.100
  libavfilter     7. 58.100 /  7. 58.100
  libswscale      5.  6.100 /  5.  6.100
  libswresample   3.  6.100 /  3.  6.100
  libpostproc    55.  6.100 / 55.  6.100
Input #0, rawvideo, from 'pipe:':
  Duration: N/A, start: 0.000000, bitrate: 460800 kb/s
    Stream #0:0: Video: rawvideo (RGB[24] / 0x18424752), rgb24, 800x800, 460800 kb/s, 30 tbr, 30 tbn, 30 tbc
Stream mapping:
  Stream #0:0 -> #0:0 (rawvideo (native) -> h264 (libx264))
[libx264 @ 0000022602cfb9c0] using cpu capabilities: MMX2 SSE2Fast SSSE3 SSE4.2 AVX FMA3 BMI2 AVX2
[libx264 @ 0000022602cfb9c0] profile High, level 3.1, 4:2:0, 8-bit
[libx264 @ 0000022602cfb9c0] 264 - core 158 r2984 3759fcb - H.264/MPEG-4 AVC codec - Copyleft 2003-2019 - http://www.videolan.org/x264.html - options: cabac=1 ref=3 deblock=1:0:0 analyse=0x3:0x113 me=hex subme=7 psy=1 psy_rd=1.00:0.00 mixed_ref=1 me_range=16 chroma_me=1 trellis=1 8x8dct=1 cqm=0 deadzone=21,11 fast_pskip=1 chroma_qp_offset=-2 threads=6 lookahead_threads=1 sliced_threads=0 nr=0 decimate=1 interlaced=0 bluray_compat=0 constrained_intra=0 bframes=3 b_pyramid=2 b_adapt=1 b_bias=0 direct=1 weightb=1 open_gop=0 weightp=2 keyint=250 keyint_min=25 scenecut=40 intra_refresh=0 rc_lookahead=40 rc=crf mbtree=1 crf=15.0 qcomp=0.60 qpmin=0 qpmax=69 qpstep=4 ip_ratio=1.40 aq=1:1.00
Output #0, mp4, to 'C:\Users\tommy\Coding\Animatrons\circ_hilows_v2\test1350.mp4':
  Metadata:
    comment         : Made with Video Export for Processing - https://git.io/vAXLk
    encoder         : Lavf58.30.100
    Stream #0:0: Video: h264 (libx264) (avc1 / 0x31637661), yuv420p, 800x800, q=-1--1, 30 fps, 15360 tbn, 30 tbc
    Metadata:
      encoder         : Lavc58.55.100 libx264
    Side data:
      cpb: bitrate max/min/avg: 0/0/0 buffer size: 0 vbv_delay: 18446744073709551615
frame=   18 fps=0.0 q=0.0 size=       0kB time=00:00:00.00 bitrate=N/A speed=   0x    frame=   33 fps= 32 q=0.0 size=       0kB time=00:00:00.00 bitrate=N/A speed=   0x    frame=   48 fps= 32 q=0.0 size=       0kB time=00:00:00.00 bitrate=N/A speed=   0x    frame=   64 fps= 31 q=21.0 size=       0kB time=00:00:00.36 bitrate=   1.0kbits/s speed=0.179x    frame=   79 fps= 31 q=21.0 size=     256kB time=00:00:00.86 bitrate=2420.1kbits/s speed=0.34x    frame=   94 fps= 31 q=21.0 size=     256kB time=00:00:01.36 bitrate=1534.7kbits/s speed=0.448x    frame=  110 fps= 31 q=21.0 size=     512kB time=00:00:01.90 bitrate=2207.7kbits/s speed=0.53x    frame=  126 fps= 31 q=21.0 size=     512kB time=00:00:02.43 bitrate=1723.8kbits/s speed=0.591x    frame=  141 fps= 31 q=21.0 size=     768kB time=00:00:02.93 bitrate=2144.9kbits/s speed=0.635x    frame=  156 fps= 30 q=21.0 size=     768kB time=00:00:03.43 bitrate=1832.5kbits/s speed=0.671x    frame=  171 fps= 30 q=21.0 size=    1024kB time=00:00:03.93 bitrate=2132.8kbits/s speed= 0.7x    frame=  187 fps= 30 q=21.0 size=    1280kB time=00:00:04.46 bitrate=2347.6kbits/s speed=0.726x    frame=  202 fps= 30 q=21.0 size=    1280kB time=00:00:04.96 bitrate=2111.3kbits/s speed=0.747x    frame=  217 fps= 30 q=21.0 size=    1536kB time=00:00:05.46 bitrate=2301.8kbits/s speed=0.764x    frame=  233 fps= 30 q=21.0 size=    1536kB time=00:00:06.00 bitrate=2097.2kbits/s speed=0.781x    frame=  248 fps= 30 q=21.0 size=    1792kB time=00:00:06.50 bitrate=2258.5kbits/s speed=0.794x    frame=  264 fps= 30 q=21.0 size=    1792kB time=00:00:07.03 bitrate=2087.2kbits/s speed=0.807x    frame=  280 fps= 30 q=21.0 size=    2048kB time=00:00:07.56 bitrate=2217.3kbits/s speed=0.818x    frame=  296 fps= 30 q=18.0 size=    2048kB time=00:00:08.10 bitrate=2071.3kbits/s speed=0.828x    frame=  312 fps= 30 q=21.0 size=    2304kB time=00:00:08.63 bitrate=2186.2kbits/s speed=0.837x    frame=  327 fps= 30 q=21.0 size=    2304kB time=00:00:09.13 bitrate=2066.6kbits/s speed=0.844x    frame=  342 fps= 30 q=21.0 size=    2560kB time=00:00:09.63 bitrate=2177.0kbits/s speed=0.851x    frame=  358 fps= 30 q=21.0 size=    2560kB time=00:00:10.16 bitrate=2062.8kbits/s speed=0.858x    frame=  374 fps= 30 q=21.0 size=    2816kB time=00:00:10.70 bitrate=2156.0kbits/s speed=0.864x    frame=  389 fps= 30 q=21.0 size=    2816kB time=00:00:11.20 bitrate=2059.7kbits/s speed=0.869x    frame=  405 fps= 30 q=21.0 size=    3072kB time=00:00:11.73 bitrate=2144.8kbits/s speed=0.874x    frame=  421 fps= 30 q=21.0 size=    3072kB time=00:00:12.26 bitrate=2051.6kbits/s speed=0.879x    frame=  436 fps= 30 q=21.0 size=    3328kB time=00:00:12.76 bitrate=2135.5kbits/s speed=0.883x    frame=  451 fps= 30 q=21.0 size=    3328kB time=00:00:13.26 bitrate=2055.0kbits/s speed=0.887x    frame=  467 fps= 30 q=21.0 size=    3584kB time=00:00:13.80 bitrate=2127.6kbits/s speed=0.891x    frame=  482 fps= 30 q=21.0 size=    3840kB time=00:00:14.30 bitrate=2199.8kbits/s speed=0.895x    frame=  498 fps= 30 q=21.0 size=    3840kB time=00:00:14.83 bitrate=2120.7kbits/s speed=0.898x    frame=  513 fps= 30 q=21.0 size=    4096kB time=00:00:15.33 bitrate=2188.3kbits/s speed=0.901x    frame=  528 fps= 30 q=21.0 size=    4096kB time=00:00:15.83 bitrate=2119.2kbits/s speed=0.904x    frame=  544 fps= 30 q=21.0 size=    4352kB time=00:00:16.36 bitrate=2178.3kbits/s speed=0.906x    frame=  560 fps= 30 q=21.0 size=    4608kB time=00:00:16.90 bitrate=2233.7kbits/s speed=0.909x    frame=  575 fps= 30 q=21.0 size=    4608kB time=00:00:17.40 bitrate=2169.5kbits/s speed=0.912x    frame=  590 fps= 30 q=21.0 size=    4864kB time=00:00:17.90 bitrate=2226.0kbits/s speed=0.914x    frame=  606 fps= 30 q=21.0 size=    4864kB time=00:00:18.43 bitrate=2161.6kbits/s speed=0.916x    frame=  622 fps= 30 q=21.0 size=    5120kB time=00:00:18.96 bitrate=2211.4kbits/s speed=0.918x    frame=  638 fps= 30 q=21.0 size=    5120kB time=00:00:19.50 bitrate=2150.9kbits/s speed=0.92x    frame=  653 fps= 30 q=21.0 size=    5376kB time=00:00:20.00 bitrate=2202.0kbits/s speed=0.922x    frame=  669 fps= 30 q=21.0 size=    5376kB time=00:00:20.53 bitrate=2144.8kbits/s speed=0.924x    frame=  685 fps= 30 q=21.0 size=    5632kB time=00:00:21.06 bitrate=2190.1kbits/s speed=0.926x    frame=  700 fps= 30 q=21.0 size=    5632kB time=00:00:21.56 bitrate=2139.3kbits/s speed=0.927x    frame=  716 fps= 30 q=21.0 size=    5888kB time=00:00:22.10 bitrate=2182.6kbits/s speed=0.929x    frame=  732 fps= 30 q=21.0 size=    6144kB time=00:00:22.63 bitrate=2223.8kbits/s speed=0.931x    frame=  748 fps= 30 q=21.0 size=    6144kB time=00:00:23.16 bitrate=2172.6kbits/s speed=0.932x    frame=  763 fps= 30 q=21.0 size=    6400kB time=00:00:23.66 bitrate=2215.3kbits/s speed=0.933x    frame=  779 fps= 30 q=21.0 size=    6400kB time=00:00:24.20 bitrate=2166.5kbits/s speed=0.935x    frame=  795 fps= 30 q=21.0 size=    6656kB time=00:00:24.73 bitrate=2204.6kbits/s speed=0.936x    frame=  811 fps= 30 q=21.0 size=    6656kB time=00:00:25.26 bitrate=2158.0kbits/s speed=0.937x    frame=  826 fps= 30 q=21.0 size=    6912kB time=00:00:25.76 bitrate=2197.5kbits/s speed=0.939x    frame=  842 fps= 30 q=21.0 size=    6912kB time=00:00:26.30 bitrate=2153.0kbits/s speed=0.94x    frame=  857 fps= 30 q=21.0 size=    7168kB time=00:00:26.80 bitrate=2191.1kbits/s speed=0.941x    frame=  872 fps= 30 q=21.0 size=    7168kB time=00:00:27.30 bitrate=2150.9kbits/s speed=0.942x    frame=  887 fps= 30 q=21.0 size=    7424kB time=00:00:27.80 bitrate=2187.7kbits/s speed=0.943x    frame=  903 fps= 30 q=21.0 size=    7424kB time=00:00:28.33 bitrate=2146.5kbits/s speed=0.944x    frame=  918 fps= 30 q=21.0 size=    7680kB time=00:00:28.83 bitrate=2182.0kbits/s speed=0.945x    frame=  934 fps= 30 q=21.0 size=    7680kB time=00:00:29.36 bitrate=2142.4kbits/s speed=0.946x    frame=  950 fps= 30 q=21.0 size=    7936kB time=00:00:29.90 bitrate=2174.3kbits/s speed=0.947x    frame=  965 fps= 30 q=21.0 size=    7936kB time=00:00:30.40 bitrate=2138.6kbits/s speed=0.947x    frame=  981 fps= 30 q=21.0 size=    8192kB time=00:00:30.93 bitrate=2169.5kbits/s speed=0.948x    frame=  997 fps= 30 q=21.0 size=    8192kB time=00:00:31.46 bitrate=2132.7kbits/s speed=0.949x    frame=  998 fps= 30 q=-1.0 Lsize=    8799kB time=00:00:33.16 bitrate=2173.4kbits/s speed=0.983x    
video:8794kB audio:0kB subtitle:0kB other streams:0kB global headers:0kB muxing overhead: 0.058089%
[libx264 @ 0000022602cfb9c0] frame I:4     Avg QP: 6.77  size: 89586
[libx264 @ 0000022602cfb9c0] frame P:985   Avg QP:12.52  size:  8774
[libx264 @ 0000022602cfb9c0] frame B:9     Avg QP:16.49  size:   414
[libx264 @ 0000022602cfb9c0] consecutive B-frames: 98.4%  1.2%  0.0%  0.4%
[libx264 @ 0000022602cfb9c0] mb I  I16..4: 51.0%  7.2% 41.9%
[libx264 @ 0000022602cfb9c0] mb P  I16..4:  0.1%  0.0%  0.0%  P16..4: 10.1%  4.7%  6.0%  0.0%  0.0%    skip:79.2%
[libx264 @ 0000022602cfb9c0] mb B  I16..4:  0.1%  0.2%  0.0%  B16..8: 11.4%  0.5%  0.1%  direct: 0.2%  skip:87.4%  L0:40.0% L1:57.5% BI: 2.5%
[libx264 @ 0000022602cfb9c0] 8x8 transform intra:9.7% inter:20.9%
[libx264 @ 0000022602cfb9c0] coded y,uvDC,uvAC intra: 27.4% 40.0% 38.9% inter: 9.9% 17.1% 13.2%
[libx264 @ 0000022602cfb9c0] i16 v,h,dc,p: 84% 10%  7%  0%
[libx264 @ 0000022602cfb9c0] i8 v,h,dc,ddl,ddr,vr,hd,vl,hu: 17% 24% 57%  0%  0%  1%  0%  0%  0%
[libx264 @ 0000022602cfb9c0] i4 v,h,dc,ddl,ddr,vr,hd,vl,hu: 42% 18% 16%  5%  4%  4%  4%  4%  4%
[libx264 @ 0000022602cfb9c0] i8c dc,h,v,p: 76% 12% 10%  2%
[libx264 @ 0000022602cfb9c0] Weighted P-Frames: Y:0.0% UV:0.0%
[libx264 @ 0000022602cfb9c0] ref P L0: 86.3% 11.4%  1.7%  0.6%
[libx264 @ 0000022602cfb9c0] ref B L0: 95.5%  3.9%  0.6%
[libx264 @ 0000022602cfb9c0] ref B L1: 98.3%  1.7%
[libx264 @ 0000022602cfb9c0] kb/s:2165.42
